999
"DXF R12 Output" (www.mydxf.blogspot.com)
 0 
SECTION
 2 
HEADER
 9 
$ACADVER
 1 
AC1009
 9 
$EXTMIN
 10 
 0 
 20 
 0 
 9 
$EXTMAX
 10 
 8.5 
 20 
 11 
 0 
ENDSEC
 0 
SECTION
 2 
ENTITIES
0
LINE
8
Layer 1
10
0.846666
20
317.647000
11
-0.846666
21
315.953000
0
LINE
8
Layer 1
10
0.000000
20
318.211000
11
0.000000
21
315.389000
0
LINE
8
Layer 1
10
2.257780
20
315.671000
11
1.128890
21
314.542110
0
LINE
8
Layer 1
10
1.693330
20
316.236000
11
0.564440
21
315.107110
0
LINE
8
Layer 1
10
1.128890
20
316.800000
11
0.000000
21
315.671110
0
LINE
8
Layer_1
10
0.000000
20
-237.217000
11
74.657100
21
-237.217000
0
LINE
8
Layer_1
10
74.657100
20
-237.217000
11
74.657100
21
-231.196000
0
LINE
8
Layer_1
10
74.657100
20
-231.196000
11
72.248800
21
-231.196000
0
LINE
8
Layer_1
10
72.248800
20
-231.196000
11
71.507967
21
-231.090167
0
LINE
8
Layer_1
10
71.507967
20
-231.090167
11
71.063467
21
-230.800889
0
LINE
8
Layer_1
10
71.063467
20
-230.800889
11
70.872967
21
-230.370500
0
LINE
8
Layer_1
10
70.872967
20
-230.370500
11
70.894134
21
-229.841334
0
LINE
8
Layer_1
10
70.894134
20
-229.841334
11
71.402134
21
-228.656004
0
LINE
8
Layer_1
10
71.402134
20
-228.656004
11
72.248800
21
-227.583564
0
LINE
8
Layer_1
10
72.248800
20
-227.583564
11
72.980226
21
-226.525234
0
LINE
8
Layer_1
10
72.980226
20
-226.525234
11
73.358872
21
-225.212904
0
LINE
8
Layer_1
10
73.358872
20
-225.212904
11
73.370640
21
-223.731234
0
LINE
8
Layer_1
10
73.370640
20
-223.731234
11
73.001400
21
-222.164904
0
LINE
8
Layer_1
10
73.001400
20
-222.164904
11
72.237047
21
-220.598574
0
LINE
8
Layer_1
10
72.237047
20
-220.598574
11
71.063477
21
-219.116904
0
LINE
8
Layer_1
10
71.063477
20
-219.116904
11
69.466567
21
-217.804574
0
LINE
8
Layer_1
10
69.466567
20
-217.804574
11
67.432217
21
-216.746244
0
LINE
8
Layer_1
10
67.432217
20
-216.746244
11
63.234167
21
-214.791854
0
LINE
8
Layer_1
10
63.234167
20
-214.791854
11
58.909117
21
-212.400024
0
LINE
8
Layer_1
10
58.909117
20
-212.400024
11
56.765117
21
-210.973924
0
LINE
8
Layer_1
10
56.765117
20
-210.973924
11
54.668737
21
-209.359074
0
LINE
8
Layer_1
10
54.668737
20
-209.359074
11
52.646437
21
-207.529034
0
LINE
8
Layer_1
10
52.646437
20
-207.529034
11
50.724677
21
-205.457354
0
LINE
8
Layer_1
10
50.724677
20
-205.457354
11
48.929927
21
-203.117564
0
LINE
8
Layer_1
10
48.929927
20
-203.117564
11
47.288627
21
-200.483194
0
LINE
8
Layer_1
10
47.288627
20
-200.483194
11
45.827247
21
-197.527794
0
LINE
8
Layer_1
10
45.827247
20
-197.527794
11
44.572237
21
-194.224924
0
LINE
8
Layer_1
10
44.572237
20
-194.224924
11
43.550067
21
-190.548104
0
LINE
8
Layer_1
10
43.550067
20
-190.548104
11
42.787184
21
-186.470874
0
LINE
8
Layer_1
10
42.787184
20
-186.470874
11
42.310054
21
-181.966784
0
LINE
8
Layer_1
10
42.310054
20
-181.966784
11
42.145129
21
-177.009384
0
LINE
8
Layer_1
10
42.145129
20
-177.009384
11
40.601469
21
-176.543887
0
LINE
8
Layer_1
10
40.601469
20
-176.543887
11
39.130349
21
-175.726600
0
LINE
8
Layer_1
10
39.130349
20
-175.726600
11
37.730229
21
-174.579680
0
LINE
8
Layer_1
10
37.730229
20
-174.579680
11
36.399559
21
-173.125310
0
LINE
8
Layer_1
10
36.399559
20
-173.125310
11
35.136799
21
-171.385610
0
LINE
8
Layer_1
10
35.136799
20
-171.385610
11
33.940409
21
-169.382770
0
LINE
8
Layer_1
10
33.940409
20
-169.382770
11
31.740549
21
-164.676290
0
LINE
8
Layer_1
10
31.740549
20
-164.676290
11
29.787629
21
-159.183090
0
LINE
8
Layer_1
10
29.787629
20
-159.183090
11
28.069309
21
-153.080490
0
LINE
8
Layer_1
10
28.069309
20
-153.080490
11
26.573239
21
-146.545720
0
LINE
8
Layer_1
10
26.573239
20
-146.545720
11
25.287069
21
-139.756080
0
LINE
8
Layer_1
10
25.287069
20
-139.756080
11
24.198459
21
-132.888830
0
LINE
8
Layer_1
10
24.198459
20
-132.888830
11
23.295054
21
-126.121230
0
LINE
8
Layer_1
10
23.295054
20
-126.121230
11
21.994484
21
-113.594130
0
LINE
8
Layer_1
10
21.994484
20
-113.594130
11
21.286577
21
-103.592930
0
LINE
8
Layer_1
10
21.286577
20
-103.592930
11
21.072559
21
-97.535740
0
LINE
8
Layer_1
10
21.072559
20
-97.535740
11
24.432179
21
-97.144157
0
LINE
8
Layer_1
10
24.432179
20
-97.144157
11
26.062518
21
-96.821837
0
LINE
8
Layer_1
10
26.062518
20
-96.821837
11
27.649191
21
-96.271393
0
LINE
8
Layer_1
10
27.649191
20
-96.271393
11
29.167254
21
-95.515060
0
LINE
8
Layer_1
10
29.167254
20
-95.515060
11
30.591758
21
-94.575079
0
LINE
8
Layer_1
10
30.591758
20
-94.575079
11
31.897758
21
-93.473686
0
LINE
8
Layer_1
10
31.897758
20
-93.473686
11
33.060308
21
-92.233120
0
LINE
8
Layer_1
10
33.060308
20
-92.233120
11
34.054460
21
-90.875618
0
LINE
8
Layer_1
10
34.054460
20
-90.875618
11
34.855269
21
-89.423418
0
LINE
8
Layer_1
10
34.855269
20
-89.423418
11
35.437789
21
-87.898759
0
LINE
8
Layer_1
10
35.437789
20
-87.898759
11
35.777071
21
-86.323878
0
LINE
8
Layer_1
10
35.777071
20
-86.323878
11
35.848172
21
-84.721013
0
LINE
8
Layer_1
10
35.848172
20
-84.721013
11
35.626143
21
-83.112402
0
LINE
8
Layer_1
10
35.626143
20
-83.112402
11
35.086039
21
-81.520283
0
LINE
8
Layer_1
10
35.086039
20
-81.520283
11
34.202913
21
-79.966894
0
LINE
8
Layer_1
10
34.202913
20
-79.966894
11
32.951818
21
-78.474473
0
LINE
8
Layer_1
10
32.951818
20
-78.474473
11
31.307809
21
-77.065257
0
LINE
8
Layer_1
10
31.307809
20
-77.065257
11
32.511959
21
-74.656947
0
LINE
8
Layer_1
10
32.511959
20
-74.656947
11
30.233019
21
-74.040772
0
LINE
8
Layer_1
10
30.233019
20
-74.040772
11
28.052849
21
-73.114153
0
LINE
8
Layer_1
10
28.052849
20
-73.114153
11
26.183129
21
-71.905283
0
LINE
8
Layer_1
10
26.183129
20
-71.905283
11
25.430831
21
-71.203848
0
LINE
8
Layer_1
10
25.430831
20
-71.203848
11
24.835518
21
-70.442441
0
LINE
8
Layer_1
10
24.835518
20
-70.442441
11
24.423651
21
-69.624590
0
LINE
8
Layer_1
10
24.423651
20
-69.624590
11
24.221686
21
-68.753822
0
LINE
8
Layer_1
10
24.221686
20
-68.753822
11
24.256082
21
-67.833637
0
LINE
8
Layer_1
10
24.256082
20
-67.833637
11
24.553300
21
-66.867500
0
LINE
8
Layer_1
10
24.553300
20
-66.867500
11
25.139792
21
-65.859150
0
LINE
8
Layer_1
10
25.139792
20
-65.859150
11
26.042021
21
-64.811990
0
LINE
8
Layer_1
10
26.042021
20
-64.811990
11
27.286441
21
-63.729560
0
LINE
8
Layer_1
10
27.286441
20
-63.729560
11
28.899521
21
-62.615380
0
LINE
8
Layer_1
10
28.899521
20
-62.615380
11
25.287081
21
-59.002940
0
LINE
8
Layer_1
10
25.287081
20
-59.002940
11
27.558671
21
-57.317820
0
LINE
8
Layer_1
10
27.558671
20
-57.317820
11
29.800281
21
-55.004780
0
LINE
8
Layer_1
10
29.800281
20
-55.004780
11
31.925471
21
-52.113190
0
LINE
8
Layer_1
10
31.925471
20
-52.113190
11
33.847811
21
-48.692410
0
LINE
8
Layer_1
10
33.847811
20
-48.692410
11
35.480881
21
-44.791880
0
LINE
8
Layer_1
10
35.480881
20
-44.791880
11
36.738241
21
-40.460960
0
LINE
8
Layer_1
10
36.738241
20
-40.460960
11
37.533461
21
-35.749010
0
LINE
8
Layer_1
10
37.533461
20
-35.749010
11
37.780112
21
-30.705480
0
LINE
8
Layer_1
10
37.780112
20
-30.705480
11
37.670711
21
-28.074780
0
LINE
8
Layer_1
10
37.670711
20
-28.074780
11
37.391760
21
-25.379730
0
LINE
8
Layer_1
10
37.391760
20
-25.379730
11
36.932452
21
-22.626430
0
LINE
8
Layer_1
10
36.932452
20
-22.626430
11
36.281981
21
-19.821120
0
LINE
8
Layer_1
10
36.281981
20
-19.821120
11
35.429546
21
-16.969940
0
LINE
8
Layer_1
10
35.429546
20
-16.969940
11
34.364346
21
-14.079080
0
LINE
8
Layer_1
10
34.364346
20
-14.079080
11
33.075566
21
-11.154700
0
LINE
8
Layer_1
10
33.075566
20
-11.154700
11
31.552416
21
-8.203000
0
LINE
8
Layer_1
10
31.552416
20
-8.203000
11
29.784076
21
-5.230100
0
LINE
8
Layer_1
10
29.784076
20
-5.230100
11
27.759756
21
-2.242220
0
LINE
8
Layer_1
10
27.759756
20
-2.242220
11
25.468646
21
0.754470
0
LINE
8
Layer_1
10
25.468646
20
0.754470
11
22.899946
21
3.753810
0
LINE
8
Layer_1
10
22.899946
20
3.753810
11
20.042856
21
6.749620
0
LINE
8
Layer_1
10
20.042856
20
6.749620
11
16.886566
21
9.735730
0
LINE
8
Layer_1
10
16.886566
20
9.735730
11
13.420266
21
12.705980
0
LINE
8
Layer_1
10
13.420266
20
12.705980
11
9.633166
21
15.654180
0
LINE
8
Layer_1
10
9.633166
20
15.654180
11
12.248426
21
18.344690
0
LINE
8
Layer_1
10
12.248426
20
18.344690
11
14.299236
21
20.922310
0
LINE
8
Layer_1
10
14.299236
20
20.922310
11
14.936587
21
22.133520
0
LINE
8
Layer_1
10
14.936587
20
22.133520
11
15.221161
21
23.274180
0
LINE
8
Layer_1
10
15.221161
20
23.274180
11
15.082402
21
24.330140
0
LINE
8
Layer_1
10
15.082402
20
24.330140
11
14.449755
21
25.287352
0
LINE
8
Layer_1
10
14.449755
20
25.287352
11
13.334975
21
26.185749
0
LINE
8
Layer_1
10
13.334975
20
26.185749
11
11.853300
21
27.055900
0
LINE
8
Layer_1
10
11.853300
20
27.055900
11
8.127990
21
28.598700
0
LINE
8
Layer_1
10
8.127990
20
28.598700
11
3.951110
21
29.690000
0
LINE
8
Layer_1
10
3.951110
20
29.690000
11
1.905000
21
29.995700
0
LINE
8
Layer_1
10
1.905000
20
29.995700
11
0.000000
21
30.103900
0
LINE
8
Layer_1
10
0.000000
20
30.103900
11
0.000000
21
-237.217000
0
LINE
8
Layer_1
10
0.000000
20
-237.217000
11
0.000000
21
30.103900
 0 
ENDSEC
 0 
EOF