999
"DXF R12 Output" (www.mydxf.blogspot.com)
 0 
SECTION
 2 
HEADER
 9 
$ACADVER
 1 
AC1009
 9 
$EXTMIN
 10 
 0 
 20 
 0 
 9 
$EXTMAX
 10 
 8.5 
 20 
 11 
 0 
ENDSEC
 0 
SECTION
 2 
ENTITIES
0
LINE
8
Layer 1
10
0.846666
20
317.647000
11
-0.846666
21
315.953000
0
LINE
8
Layer 1
10
0.000000
20
318.211000
11
0.000000
21
315.389000
0
LINE
8
Layer 1
10
2.257780
20
315.671000
11
1.128890
21
314.542110
0
LINE
8
Layer 1
10
1.693330
20
316.236000
11
0.564440
21
315.107110
0
LINE
8
Layer 1
10
1.128890
20
316.800000
11
0.000000
21
315.671110
0
LINE
8
Layer_1
10
0.000000
20
30.103900
11
0.000000
21
-293.812000
0
LINE
8
Layer_1
10
0.000000
20
-293.812000
11
92.719300
21
-293.812000
0
LINE
8
Layer_1
10
92.719300
20
-293.812000
11
92.719300
21
-285.383000
0
LINE
8
Layer_1
10
92.719300
20
-285.383000
11
90.311000
21
-285.383000
0
LINE
8
Layer_1
10
90.311000
20
-285.383000
11
89.276190
21
-285.157222
0
LINE
8
Layer_1
10
89.276190
20
-285.157222
11
88.765839
21
-284.875000
0
LINE
8
Layer_1
10
88.765839
20
-284.875000
11
88.354266
21
-284.479889
0
LINE
8
Layer_1
10
88.354266
20
-284.479889
11
88.112024
21
-283.971889
0
LINE
8
Layer_1
10
88.112024
20
-283.971889
11
88.109766
21
-283.351001
0
LINE
8
Layer_1
10
88.109766
20
-283.351001
11
88.417859
21
-282.617224
0
LINE
8
Layer_1
10
88.417859
20
-282.617224
11
89.106949
21
-281.770558
0
LINE
8
Layer_1
10
89.106949
20
-281.770558
11
89.912165
21
-280.827457
0
LINE
8
Layer_1
10
89.912165
20
-280.827457
11
90.525114
21
-279.813827
0
LINE
8
Layer_1
10
90.525114
20
-279.813827
11
90.951094
21
-278.743727
0
LINE
8
Layer_1
10
90.951094
20
-278.743727
11
91.195391
21
-277.631297
0
LINE
8
Layer_1
10
91.195391
20
-277.631297
11
91.263302
21
-276.490667
0
LINE
8
Layer_1
10
91.263302
20
-276.490667
11
91.160113
21
-275.335897
0
LINE
8
Layer_1
10
91.160113
20
-275.335897
11
90.461614
21
-273.040497
0
LINE
8
Layer_1
10
90.461614
20
-273.040497
11
89.142224
21
-270.857957
0
LINE
8
Layer_1
10
89.142224
20
-270.857957
11
87.244284
21
-268.901227
0
LINE
8
Layer_1
10
87.244284
20
-268.901227
11
84.810124
21
-267.283167
0
LINE
8
Layer_1
10
84.810124
20
-267.283167
11
83.405194
21
-266.636399
0
LINE
8
Layer_1
10
83.405194
20
-266.636399
11
81.882074
21
-266.116631
0
LINE
8
Layer_1
10
81.882074
20
-266.116631
11
78.369004
21
-264.662031
0
LINE
8
Layer_1
10
78.369004
20
-264.662031
11
75.057014
21
-263.002791
0
LINE
8
Layer_1
10
75.057014
20
-263.002791
11
71.949634
21
-261.131881
0
LINE
8
Layer_1
10
71.949634
20
-261.131881
11
69.050394
21
-259.042281
0
LINE
8
Layer_1
10
69.050394
20
-259.042281
11
66.362814
21
-256.726871
0
LINE
8
Layer_1
10
66.362814
20
-256.726871
11
63.890434
21
-254.178631
0
LINE
8
Layer_1
10
63.890434
20
-254.178631
11
61.636774
21
-251.390531
0
LINE
8
Layer_1
10
61.636774
20
-251.390531
11
59.605364
21
-248.355461
0
LINE
8
Layer_1
10
59.605364
20
-248.355461
11
57.799734
21
-245.066391
0
LINE
8
Layer_1
10
57.799734
20
-245.066391
11
56.223404
21
-241.516291
0
LINE
8
Layer_1
10
56.223404
20
-241.516291
11
54.879904
21
-237.698051
0
LINE
8
Layer_1
10
54.879904
20
-237.698051
11
53.772774
21
-233.604651
0
LINE
8
Layer_1
10
53.772774
20
-233.604651
11
52.905531
21
-229.229051
0
LINE
8
Layer_1
10
52.905531
20
-229.229051
11
52.281702
21
-224.564151
0
LINE
8
Layer_1
10
52.281702
20
-224.564151
11
51.904817
21
-219.602911
0
LINE
8
Layer_1
10
51.904817
20
-219.602911
11
51.778407
21
-214.338311
0
LINE
8
Layer_1
10
51.778407
20
-214.338311
11
50.176597
21
-213.714233
0
LINE
8
Layer_1
10
50.176597
20
-213.714233
11
48.644127
21
-212.647743
0
LINE
8
Layer_1
10
48.644127
20
-212.647743
11
47.179787
21
-211.162153
0
LINE
8
Layer_1
10
47.179787
20
-211.162153
11
45.782367
21
-209.280633
0
LINE
8
Layer_1
10
45.782367
20
-209.280633
11
44.450647
21
-207.026523
0
LINE
8
Layer_1
10
44.450647
20
-207.026523
11
43.183427
21
-204.423023
0
LINE
8
Layer_1
10
43.183427
20
-204.423023
11
41.979487
21
-201.493443
0
LINE
8
Layer_1
10
41.979487
20
-201.493443
11
40.837607
21
-198.261043
0
LINE
8
Layer_1
10
40.837607
20
-198.261043
11
38.735197
21
-190.980733
0
LINE
8
Layer_1
10
38.735197
20
-190.980733
11
36.866507
21
-182.768243
0
LINE
8
Layer_1
10
36.866507
20
-182.768243
11
35.221827
21
-173.809583
0
LINE
8
Layer_1
10
35.221827
20
-173.809583
11
33.791457
21
-164.290913
0
LINE
8
Layer_1
10
33.791457
20
-164.290913
11
32.565697
21
-154.398303
0
LINE
8
Layer_1
10
32.565697
20
-154.398303
11
31.534857
21
-144.317803
0
LINE
8
Layer_1
10
31.534857
20
-144.317803
11
30.689221
21
-134.235603
0
LINE
8
Layer_1
10
30.689221
20
-134.235603
11
30.019091
21
-124.337713
0
LINE
8
Layer_1
10
30.019091
20
-124.337713
11
29.166543
21
-105.839213
0
LINE
8
Layer_1
10
29.166543
20
-105.839213
11
30.532593
21
-94.121413
0
LINE
8
Layer_1
10
30.532593
20
-94.121413
11
35.945753
21
-89.153993
0
LINE
8
Layer_1
10
35.945753
20
-89.153993
11
39.179392
21
-89.212664
0
LINE
8
Layer_1
10
39.179392
20
-89.212664
11
42.185609
21
-88.779022
0
LINE
8
Layer_1
10
42.185609
20
-88.779022
11
44.931817
21
-87.909497
0
LINE
8
Layer_1
10
44.931817
20
-87.909497
11
47.385433
21
-86.660516
0
LINE
8
Layer_1
10
47.385433
20
-86.660516
11
49.513868
21
-85.088511
0
LINE
8
Layer_1
10
49.513868
20
-85.088511
11
51.284538
21
-83.249911
0
LINE
8
Layer_1
10
51.284538
20
-83.249911
11
52.664856
21
-81.201146
0
LINE
8
Layer_1
10
52.664856
20
-81.201146
11
53.622237
21
-78.998644
0
LINE
8
Layer_1
10
53.622237
20
-78.998644
11
54.124095
21
-76.698837
0
LINE
8
Layer_1
10
54.124095
20
-76.698837
11
54.137843
21
-74.358152
0
LINE
8
Layer_1
10
54.137843
20
-74.358152
11
53.630896
21
-72.033021
0
LINE
8
Layer_1
10
53.630896
20
-72.033021
11
52.570667
21
-69.779872
0
LINE
8
Layer_1
10
52.570667
20
-69.779872
11
50.924572
21
-67.655135
0
LINE
8
Layer_1
10
50.924572
20
-67.655135
11
48.660023
21
-65.715240
0
LINE
8
Layer_1
10
48.660023
20
-65.715240
11
45.744436
21
-64.016616
0
LINE
8
Layer_1
10
45.744436
20
-64.016616
11
42.145223
21
-62.615693
0
LINE
8
Layer_1
10
42.145223
20
-62.615693
11
42.069966
21
-61.265713
0
LINE
8
Layer_1
10
42.069966
20
-61.265713
11
41.768928
21
-59.943983
0
LINE
8
Layer_1
10
41.768928
20
-59.943983
11
41.129224
21
-58.678693
0
LINE
8
Layer_1
10
41.129224
20
-58.678693
11
40.037964
21
-57.498043
0
LINE
8
Layer_1
10
40.037964
20
-57.498043
11
38.382264
21
-56.430313
0
LINE
8
Layer_1
10
38.382264
20
-56.430313
11
36.049224
21
-55.503694
0
LINE
8
Layer_1
10
36.049224
20
-55.503694
11
32.925974
21
-54.746379
0
LINE
8
Layer_1
10
32.925974
20
-54.746379
11
28.899604
21
-54.186648
0
LINE
8
Layer_1
10
28.899604
20
-54.186648
11
28.899600
21
-48.165700
0
LINE
8
Layer_1
10
28.899600
20
-48.165700
11
30.541190
21
-47.662385
0
LINE
8
Layer_1
10
30.541190
20
-47.662385
11
31.872340
21
-47.074432
0
LINE
8
Layer_1
10
31.872340
20
-47.074432
11
32.921270
21
-46.430035
0
LINE
8
Layer_1
10
32.921270
20
-46.430035
11
33.716196
21
-45.757387
0
LINE
8
Layer_1
10
33.716196
20
-45.757387
11
34.656935
21
-44.440367
0
LINE
8
Layer_1
10
34.656935
20
-44.440367
11
34.920341
21
-43.349097
0
LINE
8
Layer_1
10
34.920341
20
-43.349097
11
34.656935
21
-42.257827
0
LINE
8
Layer_1
10
34.656935
20
-42.257827
11
33.716196
21
-40.940807
0
LINE
8
Layer_1
10
33.716196
20
-40.940807
11
32.921270
21
-40.268159
0
LINE
8
Layer_1
10
32.921270
20
-40.268159
11
31.872340
21
-39.623762
0
LINE
8
Layer_1
10
31.872340
20
-39.623762
11
30.541190
21
-39.035809
0
LINE
8
Layer_1
10
30.541190
20
-39.035809
11
28.899600
21
-38.532494
0
LINE
8
Layer_1
10
28.899600
20
-38.532494
11
46.030100
21
20.470706
0
LINE
8
Layer_1
10
46.030100
20
20.470706
11
46.317027
21
21.766586
0
LINE
8
Layer_1
10
46.317027
20
21.766586
11
46.293518
21
22.935466
0
LINE
8
Layer_1
10
46.293518
20
22.935466
11
45.987778
21
23.963206
0
LINE
8
Layer_1
10
45.987778
20
23.963206
11
45.428039
21
24.835752
0
LINE
8
Layer_1
10
45.428039
20
24.835752
11
44.642522
21
25.538965
0
LINE
8
Layer_1
10
44.642522
20
25.538965
11
43.659447
21
26.058705
0
LINE
8
Layer_1
10
43.659447
20
26.058705
11
42.507037
21
26.380918
0
LINE
8
Layer_1
10
42.507037
20
26.380918
11
41.213517
21
26.491464
0
LINE
8
Layer_1
10
41.213517
20
26.491464
11
26.491317
21
26.491464
0
LINE
8
Layer_1
10
26.491317
20
26.491464
11
26.265539
21
28.071904
0
LINE
8
Layer_1
10
26.265539
20
28.071904
11
25.588206
21
29.200794
0
LINE
8
Layer_1
10
25.588206
20
29.200794
11
24.459316
21
29.878127
0
LINE
8
Layer_1
10
24.459316
20
29.878127
11
22.878876
21
30.103905
0
LINE
8
Layer_1
10
22.878876
20
30.103905
11
0.000000
21
30.103900
 0 
ENDSEC
 0 
EOF