999
"DXF R12 Output" (www.mydxf.blogspot.com)
 0 
SECTION
 2 
HEADER
 9 
$ACADVER
 1 
AC1009
 9 
$EXTMIN
 10 
 0 
 20 
 0 
 9 
$EXTMAX
 10 
 8.5 
 20 
 11 
 0 
ENDSEC
 0 
SECTION
 2 
ENTITIES
0
LINE
8
Layer 1
10
0.846666
20
317.647000
11
-0.846666
21
315.953000
0
LINE
8
Layer 1
10
0.000000
20
318.211000
11
0.000000
21
315.389000
0
LINE
8
Layer 1
10
2.257780
20
315.671000
11
1.128890
21
314.542110
0
LINE
8
Layer 1
10
1.693330
20
316.236000
11
0.564440
21
315.107110
0
LINE
8
Layer 1
10
1.128890
20
316.800000
11
0.000000
21
315.671110
0
LINE
8
Layer_1
10
0.000000
20
30.103900
11
0.000000
21
-150.518000
0
LINE
8
Layer_1
10
0.000000
20
-150.518000
11
57.799100
21
-150.518000
0
LINE
8
Layer_1
10
57.799100
20
-150.518000
11
57.799100
21
-145.702000
0
LINE
8
Layer_1
10
57.799100
20
-145.702000
11
55.390800
21
-145.702000
0
LINE
8
Layer_1
10
55.390800
20
-145.702000
11
54.699356
21
-145.598509
0
LINE
8
Layer_1
10
54.699356
20
-145.598509
11
54.374801
21
-145.325685
0
LINE
8
Layer_1
10
54.374801
20
-145.325685
11
54.332465
21
-144.940000
0
LINE
8
Layer_1
10
54.332465
20
-144.940000
11
54.487690
21
-144.497843
0
LINE
8
Layer_1
10
54.487690
20
-144.497843
11
55.052134
21
-143.670001
0
LINE
8
Layer_1
10
55.052134
20
-143.670001
11
55.390800
21
-143.293686
0
LINE
8
Layer_1
10
55.390800
20
-143.293686
11
56.176317
21
-142.287116
0
LINE
8
Layer_1
10
56.176317
20
-142.287116
11
56.707834
21
-141.111186
0
LINE
8
Layer_1
10
56.707834
20
-141.111186
11
56.957129
21
-139.822366
0
LINE
8
Layer_1
10
56.957129
20
-139.822366
11
56.895983
21
-138.477126
0
LINE
8
Layer_1
10
56.895983
20
-138.477126
11
56.496168
21
-137.131856
0
LINE
8
Layer_1
10
56.496168
20
-137.131856
11
55.729467
21
-135.843036
0
LINE
8
Layer_1
10
55.729467
20
-135.843036
11
54.567657
21
-134.667126
0
LINE
8
Layer_1
10
54.567657
20
-134.667126
11
52.982507
21
-133.660526
0
LINE
8
Layer_1
10
52.982507
20
-133.660526
11
49.564097
21
-132.250006
0
LINE
8
Layer_1
10
49.564097
20
-132.250006
11
46.519627
21
-130.730126
0
LINE
8
Layer_1
10
46.519627
20
-130.730126
11
43.827937
21
-129.104386
0
LINE
8
Layer_1
10
43.827937
20
-129.104386
11
41.467857
21
-127.376366
0
LINE
8
Layer_1
10
41.467857
20
-127.376366
11
39.418217
21
-125.549576
0
LINE
8
Layer_1
10
39.418217
20
-125.549576
11
37.657857
21
-123.627536
0
LINE
8
Layer_1
10
37.657857
20
-123.627536
11
36.165607
21
-121.613766
0
LINE
8
Layer_1
10
36.165607
20
-121.613766
11
34.920307
21
-119.511806
0
LINE
8
Layer_1
10
34.920307
20
-119.511806
11
33.900777
21
-117.325146
0
LINE
8
Layer_1
10
33.900777
20
-117.325146
11
33.085861
21
-115.057376
0
LINE
8
Layer_1
10
33.085861
20
-115.057376
11
32.454389
21
-112.711996
0
LINE
8
Layer_1
10
32.454389
20
-112.711996
11
31.985195
21
-110.292536
0
LINE
8
Layer_1
10
31.985195
20
-110.292536
11
31.448973
21
-105.245476
0
LINE
8
Layer_1
10
31.448973
20
-105.245476
11
31.307862
21
-99.944386
0
LINE
8
Layer_1
10
31.307862
20
-99.944386
11
30.245712
21
-99.350986
0
LINE
8
Layer_1
10
30.245712
20
-99.350986
11
29.104182
21
-98.470961
0
LINE
8
Layer_1
10
29.104182
20
-98.470961
11
27.902682
21
-97.299881
0
LINE
8
Layer_1
10
27.902682
20
-97.299881
11
26.660612
21
-95.833371
0
LINE
8
Layer_1
10
26.660612
20
-95.833371
11
25.397372
21
-94.066971
0
LINE
8
Layer_1
10
25.397372
20
-94.066971
11
24.132372
21
-91.996311
0
LINE
8
Layer_1
10
24.132372
20
-91.996311
11
22.885012
21
-89.616981
0
LINE
8
Layer_1
10
22.885012
20
-89.616981
11
21.674692
21
-86.924551
0
LINE
8
Layer_1
10
21.674692
20
-86.924551
11
20.520812
21
-83.914621
0
LINE
8
Layer_1
10
20.520812
20
-83.914621
11
19.442782
21
-80.582791
0
LINE
8
Layer_1
10
19.442782
20
-80.582791
11
18.460002
21
-76.924631
0
LINE
8
Layer_1
10
18.460002
20
-76.924631
11
17.591876
21
-72.935731
0
LINE
8
Layer_1
10
17.591876
20
-72.935731
11
16.857805
21
-68.611721
0
LINE
8
Layer_1
10
16.857805
20
-68.611721
11
16.277192
21
-63.948141
0
LINE
8
Layer_1
10
16.277192
20
-63.948141
11
15.869440
21
-58.940621
0
LINE
8
Layer_1
10
15.869440
20
-58.940621
11
15.653952
21
-53.584721
0
LINE
8
Layer_1
10
15.653952
20
-53.584721
11
20.056612
21
-52.766277
0
LINE
8
Layer_1
10
20.056612
20
-52.766277
11
21.753530
21
-52.124173
0
LINE
8
Layer_1
10
21.753530
20
-52.124173
11
23.222143
21
-51.324677
0
LINE
8
Layer_1
10
23.222143
20
-51.324677
11
24.466517
21
-50.390832
0
LINE
8
Layer_1
10
24.466517
20
-50.390832
11
25.490721
21
-49.345682
0
LINE
8
Layer_1
10
25.490721
20
-49.345682
11
26.298823
21
-48.212272
0
LINE
8
Layer_1
10
26.298823
20
-48.212272
11
26.894891
21
-47.013647
0
LINE
8
Layer_1
10
26.894891
20
-47.013647
11
27.282992
21
-45.772850
0
LINE
8
Layer_1
10
27.282992
20
-45.772850
11
27.467194
21
-44.512926
0
LINE
8
Layer_1
10
27.467194
20
-44.512926
11
27.451566
21
-43.256919
0
LINE
8
Layer_1
10
27.451566
20
-43.256919
11
27.240175
21
-42.027874
0
LINE
8
Layer_1
10
27.240175
20
-42.027874
11
26.837089
21
-40.848834
0
LINE
8
Layer_1
10
26.837089
20
-40.848834
11
26.246376
21
-39.742845
0
LINE
8
Layer_1
10
26.246376
20
-39.742845
11
25.472104
21
-38.732951
0
LINE
8
Layer_1
10
25.472104
20
-38.732951
11
24.518340
21
-37.842195
0
LINE
8
Layer_1
10
24.518340
20
-37.842195
11
23.389154
21
-37.093622
0
LINE
8
Layer_1
10
23.389154
20
-37.093622
11
22.088612
21
-36.510277
0
LINE
8
Layer_1
10
22.088612
20
-36.510277
11
17.460172
21
-35.522500
0
LINE
8
Layer_1
10
17.460172
20
-35.522500
11
16.879852
21
-35.357259
0
LINE
8
Layer_1
10
16.879852
20
-35.357259
11
16.486505
21
-35.103852
0
LINE
8
Layer_1
10
16.486505
20
-35.103852
11
16.269547
21
-34.786945
0
LINE
8
Layer_1
10
16.269547
20
-34.786945
11
16.218394
21
-34.431232
0
LINE
8
Layer_1
10
16.218394
20
-34.431232
11
16.571171
21
-33.702168
0
LINE
8
Layer_1
10
16.571171
20
-33.702168
11
17.460171
21
-33.114187
0
LINE
8
Layer_1
10
17.460171
20
-33.114187
11
18.925811
21
-32.333533
0
LINE
8
Layer_1
10
18.925811
20
-32.333533
11
20.379991
21
-31.356198
0
LINE
8
Layer_1
10
20.379991
20
-31.356198
11
23.208091
21
-28.871458
0
LINE
8
Layer_1
10
23.208091
20
-28.871458
11
25.852751
21
-25.779938
0
LINE
8
Layer_1
10
25.852751
20
-25.779938
11
28.222241
21
-22.201618
0
LINE
8
Layer_1
10
28.222241
20
-22.201618
11
30.224841
21
-18.256378
0
LINE
8
Layer_1
10
30.224841
20
-18.256378
11
31.768831
21
-14.064198
0
LINE
8
Layer_1
10
31.768831
20
-14.064198
11
32.762487
21
-9.745048
0
LINE
8
Layer_1
10
32.762487
20
-9.745048
11
33.024276
21
-7.575298
0
LINE
8
Layer_1
10
33.024276
20
-7.575298
11
33.114087
21
-5.418808
0
LINE
8
Layer_1
10
33.114087
20
-5.418808
11
32.953867
21
-1.851498
0
LINE
8
Layer_1
10
32.953867
20
-1.851498
11
32.481441
21
1.614382
0
LINE
8
Layer_1
10
32.481441
20
1.614382
11
31.709152
21
4.962102
0
LINE
8
Layer_1
10
31.709152
20
4.962102
11
30.649352
21
8.174892
0
LINE
8
Layer_1
10
30.649352
20
8.174892
11
29.314382
21
11.235952
0
LINE
8
Layer_1
10
29.314382
20
11.235952
11
27.716592
21
14.128582
0
LINE
8
Layer_1
10
27.716592
20
14.128582
11
25.868332
21
16.835992
0
LINE
8
Layer_1
10
25.868332
20
16.835992
11
23.781952
21
19.341442
0
LINE
8
Layer_1
10
23.781952
20
19.341442
11
21.469792
21
21.628202
0
LINE
8
Layer_1
10
21.469792
20
21.628202
11
18.944202
21
23.679452
0
LINE
8
Layer_1
10
18.944202
20
23.679452
11
16.217522
21
25.478472
0
LINE
8
Layer_1
10
16.217522
20
25.478472
11
13.302112
21
27.008482
0
LINE
8
Layer_1
10
13.302112
20
27.008482
11
10.210312
21
28.252772
0
LINE
8
Layer_1
10
10.210312
20
28.252772
11
6.954472
21
29.194519
0
LINE
8
Layer_1
10
6.954472
20
29.194519
11
3.546932
21
29.817044
0
LINE
8
Layer_1
10
3.546932
20
29.817044
11
0.000000
21
30.103900
 0 
ENDSEC
 0 
EOF