999
"DXF R12 Output" (www.mydxf.blogspot.com)
 0 
SECTION
 2 
HEADER
 9 
$ACADVER
 1 
AC1009
 9 
$EXTMIN
 10 
 0 
 20 
 0 
 9 
$EXTMAX
 10 
 8.5 
 20 
 11 
 0 
ENDSEC
 0 
SECTION
 2 
ENTITIES
0
LINE
8
Layer 1
10
0.846666
20
317.647000
11
-0.846666
21
315.953000
0
LINE
8
Layer 1
10
0.000000
20
318.211000
11
0.000000
21
315.389000
0
LINE
8
Layer 1
10
2.257780
20
315.671000
11
1.128890
21
314.542110
0
LINE
8
Layer 1
10
1.693330
20
316.236000
11
0.564440
21
315.107110
0
LINE
8
Layer 1
10
1.128890
20
316.800000
11
0.000000
21
315.671110
0
LINE
8
Layer_1
10
0.000000
20
30.103900
11
0.000000
21
-229.992000
0
LINE
8
Layer_1
10
0.000000
20
-229.992000
11
92.719300
21
-229.992000
0
LINE
8
Layer_1
10
92.719300
20
-229.992000
11
92.719300
21
-221.563000
0
LINE
8
Layer_1
10
92.719300
20
-221.563000
11
90.311000
21
-221.563000
0
LINE
8
Layer_1
10
90.311000
20
-221.563000
11
89.276190
21
-221.337222
0
LINE
8
Layer_1
10
89.276190
20
-221.337222
11
88.765839
21
-221.055000
0
LINE
8
Layer_1
10
88.765839
20
-221.055000
11
88.354266
21
-220.659889
0
LINE
8
Layer_1
10
88.354266
20
-220.659889
11
88.112024
21
-220.151889
0
LINE
8
Layer_1
10
88.112024
20
-220.151889
11
88.109766
21
-219.531001
0
LINE
8
Layer_1
10
88.109766
20
-219.531001
11
88.417859
21
-218.797224
0
LINE
8
Layer_1
10
88.417859
20
-218.797224
11
89.106949
21
-217.950558
0
LINE
8
Layer_1
10
89.106949
20
-217.950558
11
89.912165
21
-217.007457
0
LINE
8
Layer_1
10
89.912165
20
-217.007457
11
90.525114
21
-215.993797
0
LINE
8
Layer_1
10
90.525114
20
-215.993797
11
90.951094
21
-214.923727
0
LINE
8
Layer_1
10
90.951094
20
-214.923727
11
91.195391
21
-213.811297
0
LINE
8
Layer_1
10
91.195391
20
-213.811297
11
91.263302
21
-212.670637
0
LINE
8
Layer_1
10
91.263302
20
-212.670637
11
91.160113
21
-211.515897
0
LINE
8
Layer_1
10
91.160113
20
-211.515897
11
90.461614
21
-209.220477
0
LINE
8
Layer_1
10
90.461614
20
-209.220477
11
89.142224
21
-207.037967
0
LINE
8
Layer_1
10
89.142224
20
-207.037967
11
87.244284
21
-205.081237
0
LINE
8
Layer_1
10
87.244284
20
-205.081237
11
84.810124
21
-203.463147
0
LINE
8
Layer_1
10
84.810124
20
-203.463147
11
83.405194
21
-202.816407
0
LINE
8
Layer_1
10
83.405194
20
-202.816407
11
81.882074
21
-202.296639
0
LINE
8
Layer_1
10
81.882074
20
-202.296639
11
78.341954
21
-200.842009
0
LINE
8
Layer_1
10
78.341954
20
-200.842009
11
74.953524
21
-199.182799
0
LINE
8
Layer_1
10
74.953524
20
-199.182799
11
71.727374
21
-197.311889
0
LINE
8
Layer_1
10
71.727374
20
-197.311889
11
68.674084
21
-195.222259
0
LINE
8
Layer_1
10
68.674084
20
-195.222259
11
65.804244
21
-192.906879
0
LINE
8
Layer_1
10
65.804244
20
-192.906879
11
63.128424
21
-190.358639
0
LINE
8
Layer_1
10
63.128424
20
-190.358639
11
60.657214
21
-187.570509
0
LINE
8
Layer_1
10
60.657214
20
-187.570509
11
58.401204
21
-184.535469
0
LINE
8
Layer_1
10
58.401204
20
-184.535469
11
56.370974
21
-181.246399
0
LINE
8
Layer_1
10
56.370974
20
-181.246399
11
54.577104
21
-177.696269
0
LINE
8
Layer_1
10
54.577104
20
-177.696269
11
53.030174
21
-173.878059
0
LINE
8
Layer_1
10
53.030174
20
-173.878059
11
51.740774
21
-169.784659
0
LINE
8
Layer_1
10
51.740774
20
-169.784659
11
50.719484
21
-165.409029
0
LINE
8
Layer_1
10
50.719484
20
-165.409029
11
49.976887
21
-160.744149
0
LINE
8
Layer_1
10
49.976887
20
-160.744149
11
49.523568
21
-155.782909
0
LINE
8
Layer_1
10
49.523568
20
-155.782909
11
49.370110
21
-150.518279
0
LINE
8
Layer_1
10
49.370110
20
-150.518279
11
47.771750
21
-149.895951
0
LINE
8
Layer_1
10
47.771750
20
-149.895951
11
46.249350
21
-148.834511
0
LINE
8
Layer_1
10
46.249350
20
-148.834511
11
44.801250
21
-147.357021
0
LINE
8
Layer_1
10
44.801250
20
-147.357021
11
43.425800
21
-145.486511
0
LINE
8
Layer_1
10
43.425800
20
-145.486511
11
42.121350
21
-143.246011
0
LINE
8
Layer_1
10
42.121350
20
-143.246011
11
40.886240
21
-140.658601
0
LINE
8
Layer_1
10
40.886240
20
-140.658601
11
39.718820
21
-137.747281
0
LINE
8
Layer_1
10
39.718820
20
-137.747281
11
38.617440
21
-134.535111
0
LINE
8
Layer_1
10
38.617440
20
-134.535111
11
36.606170
21
-127.300381
0
LINE
8
Layer_1
10
36.606170
20
-127.300381
11
34.839190
21
-119.138721
0
LINE
8
Layer_1
10
34.839190
20
-119.138721
11
33.303290
21
-110.234471
0
LINE
8
Layer_1
10
33.303290
20
-110.234471
11
31.985220
21
-100.771961
0
LINE
8
Layer_1
10
31.985220
20
-100.771961
11
30.871770
21
-90.935481
0
LINE
8
Layer_1
10
30.871770
20
-90.935481
11
29.949697
21
-80.909381
0
LINE
8
Layer_1
10
29.949697
20
-80.909381
11
29.205780
21
-70.877981
0
LINE
8
Layer_1
10
29.205780
20
-70.877981
11
28.626782
21
-61.025641
0
LINE
8
Layer_1
10
28.626782
20
-61.025641
11
27.910644
21
-42.595341
0
LINE
8
Layer_1
10
27.910644
20
-42.595341
11
29.192354
21
-30.676641
0
LINE
8
Layer_1
10
29.192354
20
-30.676641
11
34.929744
21
-25.841981
0
LINE
8
Layer_1
10
34.929744
20
-25.841981
11
38.548417
21
-25.605235
0
LINE
8
Layer_1
10
38.548417
20
-25.605235
11
41.797609
21
-25.044350
0
LINE
8
Layer_1
10
41.797609
20
-25.044350
11
44.673516
21
-24.190477
0
LINE
8
Layer_1
10
44.673516
20
-24.190477
11
47.172332
21
-23.074769
0
LINE
8
Layer_1
10
47.172332
20
-23.074769
11
49.290251
21
-21.728374
0
LINE
8
Layer_1
10
49.290251
20
-21.728374
11
51.023467
21
-20.182444
0
LINE
8
Layer_1
10
51.023467
20
-20.182444
11
52.368175
21
-18.468129
0
LINE
8
Layer_1
10
52.368175
20
-18.468129
11
53.320569
21
-16.616581
0
LINE
8
Layer_1
10
53.320569
20
-16.616581
11
53.876844
21
-14.658950
0
LINE
8
Layer_1
10
53.876844
20
-14.658950
11
54.033194
21
-12.626387
0
LINE
8
Layer_1
10
54.033194
20
-12.626387
11
53.785812
21
-10.550043
0
LINE
8
Layer_1
10
53.785812
20
-10.550043
11
53.130894
21
-8.461069
0
LINE
8
Layer_1
10
53.130894
20
-8.461069
11
52.064634
21
-6.390614
0
LINE
8
Layer_1
10
52.064634
20
-6.390614
11
50.583226
21
-4.369831
0
LINE
8
Layer_1
10
50.583226
20
-4.369831
11
48.682865
21
-2.429870
0
LINE
8
Layer_1
10
48.682865
20
-2.429870
11
46.359744
21
-0.601881
0
LINE
8
Layer_1
10
46.359744
20
-0.601881
11
46.215105
21
0.825679
0
LINE
8
Layer_1
10
46.215105
20
0.825679
11
45.767078
21
2.352019
0
LINE
8
Layer_1
10
45.767078
20
2.352019
11
44.994492
21
3.906609
0
LINE
8
Layer_1
10
44.994492
20
3.906609
11
43.876192
21
5.418839
0
LINE
8
Layer_1
10
43.876192
20
5.418839
11
42.391002
21
6.818179
0
LINE
8
Layer_1
10
42.391002
20
6.818179
11
40.517752
21
8.034109
0
LINE
8
Layer_1
10
40.517752
20
8.034109
11
38.235282
21
8.996006
0
LINE
8
Layer_1
10
38.235282
20
8.996006
11
35.522422
21
9.633348
0
LINE
8
Layer_1
10
35.522422
20
9.633348
11
35.522400
21
15.654200
0
LINE
8
Layer_1
10
35.522400
20
15.654200
11
37.163990
21
16.157486
0
LINE
8
Layer_1
10
37.163990
20
16.157486
11
38.495140
21
16.745439
0
LINE
8
Layer_1
10
38.495140
20
16.745439
11
39.544070
21
17.389865
0
LINE
8
Layer_1
10
39.544070
20
17.389865
11
40.338993
21
18.062485
0
LINE
8
Layer_1
10
40.338993
20
18.062485
11
41.279735
21
19.379535
0
LINE
8
Layer_1
10
41.279735
20
19.379535
11
41.543141
21
20.470775
0
LINE
8
Layer_1
10
41.543141
20
20.470775
11
41.279735
21
21.562045
0
LINE
8
Layer_1
10
41.279735
20
21.562045
11
40.338993
21
22.879095
0
LINE
8
Layer_1
10
40.338993
20
22.879095
11
39.544070
21
23.551715
0
LINE
8
Layer_1
10
39.544070
20
23.551715
11
38.495140
21
24.196112
0
LINE
8
Layer_1
10
38.495140
20
24.196112
11
37.163990
21
24.784093
0
LINE
8
Layer_1
10
37.163990
20
24.784093
11
35.522400
21
25.287379
0
LINE
8
Layer_1
10
35.522400
20
25.287379
11
35.522400
21
30.103900
0
LINE
8
Layer_1
10
35.522400
20
30.103900
11
0.000000
21
30.103900
 0 
ENDSEC
 0 
EOF